<svg width="2101" height="2100" xmlns="http://www.w3.org/2000/svg" xmlns:xlink="http://www.w3.org/1999/xlink" xml:space="preserve" overflow="hidden"><defs><clipPath id="clip0"><rect x="1206" y="262" width="2101" height="2100"/></clipPath></defs><g clip-path="url(#clip0)" transform="translate(-1206 -262)"><path d="M1206 262 2257 262 2257 827.075 2257 827.075 2240.85 837.532C2182.78 874.087 2121.99 906.149 2059.02 933.439 1994.9 961.99 1928.6 985.369 1860.75 1003.35L1838.32 1009.03 1838.32 1258.21 1841.71 1312 1206 1312Z" fill="#2421EB" fill-rule="evenodd"/><path d="M1206 1312 1841.71 1312 1842.86 1330.31C1887.33 1676.4 2243.19 1808.04 2246.83 1809.45L2257 1813.03 2257 1813.03 2257 2362 1206 2362Z" fill="#205DEB" fill-rule="evenodd"/><path d="M1050 0C770.819 0 503.132 111.176 306.104 308.957 109.075 506.738-1.07188 774.837 0.00793719 1054L635.199 1051.54 631.716 996.15 631.716 746.986 654.123 741.309C721.818 723.215 787.959 699.738 851.912 671.102 914.821 643.813 975.55 611.753 1033.57 575.2L1050 565.043Z" fill="#6F94EB" fill-rule="evenodd" transform="matrix(-1 0 0 1 3307 262)"/><path d="M3306.99 1307C3308.07 1586.43 3197.92 1854.78 3000.9 2052.75 2803.87 2250.72 2536.18 2362 2257 2362L2257 1813.23 2267.16 1809.64C2271.08 1809.64 2626.35 1676.91 2670.75 1330.14L2672.05 1309.46Z" fill="#6621EB" fill-rule="evenodd"/></g></svg>